# xmcd
#
# Track frame offsets:
#	150
#	19510
#	37350
#	60824
#	75494
#	107662
#	124642
#	142758
#	164556
#	177768
#
# Disc length: 2534 seconds
#
# Revision: 0
# Processed by: cddbd v1.4PL0 Copyright (c) Steve Scherf et al.
# Submitted via: dBpowerAMP V4.0
#
DISCID=7309e40a
DTITLE=Jimmy Griswold - The Right Road
DYEAR=2000
DGENRE=R&B
TTITLE0=The right road
TTITLE1=The letter
TTITLE2=Nickel and dimen
TTITLE3=Push me
TTITLE4=Blues for roy
TTITLE5=The blues will never die
TTITLE6=Hit it green teeth
TTITLE7=Street people
TTITLE8=Change in the weather
TTITLE9=After 9
EXTD=local florida band
EXTT0=
EXTT1=
EXTT2=
EXTT3=
EXTT4=
EXTT5=
EXTT6=
EXTT7=
EXTT8=
EXTT9=
PLAYORDER=
